{
  "accessors": [
    {
      "bufferView": 1,
      "componentType": 5126,
      "count": 28323,
      "max": [
        -3.556999921798706,
        0.0020000000949949026,
        62.0
      ],
      "min": [
        -17.531999588012695,
        -12.0,
        16.399999618530273
      ],
      "type": "VEC3"
    },
    {
      "bufferView": 1,
      "byteOffset": 339876,
      "componentType": 5126,
      "count": 28323,
      "max": [
        1.0,
        1.0,
        1.0
      ],
      "min": [
        -1.0,
        -1.0,
        -1.0
      ],
      "type": "VEC3"
    },
    {
      "bufferView": 0,
      "componentType": 5125,
      "count": 142062,
      "type": "SCALAR"
    },
    {
      "bufferView": 1,
      "byteOffset": 679752,
      "componentType": 5126,
      "count": 3938,
      "max": [
        4.120699882507324,
        -11.269000053405762,
        20.305999755859375
      ],
      "min": [
        -25.2106990814209,
        -24.850000381469727,
        -24.21299934387207
      ],
      "type": "VEC3"
    },
    {
      "bufferView": 1,
      "byteOffset": 727008,
      "componentType": 5126,
      "count": 3938,
      "max": [
        1.0,
        1.0,
        1.0
      ],
      "min": [
        -1.0,
        -1.0,
        -1.0
      ],
      "type": "VEC3"
    },
    {
      "bufferView": 0,
      "byteOffset": 568248,
      "componentType": 5125,
      "count": 11241,
      "type": "SCALAR"
    },
    {
      "bufferView": 1,
      "byteOffset": 774264,
      "componentType": 5126,
      "count": 4740,
      "max": [
        -6.776000022888184,
        -24.850000381469727,
        19.736000061035156
      ],
      "min": [
        -15.475799560546875,
        -37.29899978637695,
        10.086000442504883
      ],
      "type": "VEC3"
    },
    {
      "bufferView": 1,
      "byteOffset": 831144,
      "componentType": 5126,
      "count": 4740,
      "max": [
        1.0,
        1.0,
        1.0
      ],
      "min": [
        -1.0,
        -1.0,
        -1.0
      ],
      "type": "VEC3"
    },
    {
      "bufferView": 0,
      "byteOffset": 613212,
      "componentType": 5125,
      "count": 13701,
      "type": "SCALAR"
    },
    {
      "bufferView": 1,
      "byteOffset": 888024,
      "componentType": 5126,
      "count": 660,
      "max": [
        -6.98390007019043,
        -20.44529914855957,
        40.016998291015625
      ],
      "min": [
        -13.895000457763672,
        -22.7189998626709,
        22.577999114990234
      ],
      "type": "VEC3"
    },
    {
      "bufferView": 1,
      "byteOffset": 895944,
      "componentType": 5126,
      "count": 660,
      "max": [
        0.4703543484210968,
        1.0,
        1.0
      ],
      "min": [
        -0.6919542551040649,
        -1.0,
        -1.0
      ],
      "type": "VEC3"
    },
    {
      "bufferView": 0,
      "byteOffset": 668016,
      "componentType": 5125,
      "count": 2202,
      "type": "SCALAR"
    },
    {
      "bufferView": 1,
      "byteOffset": 903864,
      "componentType": 5126,
      "count": 20843,
      "max": [
        -0.39800000190734863,
        -14.218000411987305,
        39.18000030517578
      ],
      "min": [
        -20.81599998474121,
        -24.650999069213867,
        12.538999557495117
      ],
      "type": "VEC3"
    },
    {
      "bufferView": 1,
      "byteOffset": 1153980,
      "componentType": 5126,
      "count": 20843,
      "max": [
        1.0,
        1.0,
        1.0
      ],
      "min": [
        -1.0,
        -1.0,
        -1.0
      ],
      "type": "VEC3"
    },
    {
      "bufferView": 0,
      "byteOffset": 676824,
      "componentType": 5125,
      "count": 99330,
      "type": "SCALAR"
    },
    {
      "bufferView": 1,
      "byteOffset": 1404096,
      "componentType": 5126,
      "count": 628,
      "max": [
        1.5577000379562378,
        -21.6299991607666,
        -23.357999801635742
      ],
      "min": [
        -3.450700044631958,
        -24.655000686645508,
        -27.913700103759766
      ],
      "type": "VEC3"
    },
    {
      "bufferView": 1,
      "byteOffset": 1411632,
      "componentType": 5126,
      "count": 628,
      "max": [
        0.9588661193847656,
        1.0,
        1.0
      ],
      "min": [
        -0.994170606136322,
        -0.9516002535820007,
        -0.994935154914856
      ],
      "type": "VEC3"
    },
    {
      "bufferView": 0,
      "byteOffset": 1074144,
      "componentType": 5125,
      "count": 2493,
      "type": "SCALAR"
    },
    {
      "bufferView": 1,
      "byteOffset": 1419168,
      "componentType": 5126,
      "count": 14570,
      "max": [
        14.0,
        -0.0,
        54.354000091552734
      ],
      "min": [
        -35.0,
        -40.87799835205078,
        -80.99800109863281
      ],
      "type": "VEC3"
    },
    {
      "bufferView": 1,
      "byteOffset": 1594008,
      "componentType": 5126,
      "count": 14570,
      "max": [
        1.0,
        1.0,
        1.0
      ],
      "min": [
        -1.0,
        -1.0,
        -1.0
      ],
      "type": "VEC3"
    },
    {
      "bufferView": 0,
      "byteOffset": 1084116,
      "componentType": 5125,
      "count": 60804,
      "type": "SCALAR"
    },
    {
      "bufferView": 1,
      "byteOffset": 1768848,
      "componentType": 5126,
      "count": 44,
      "max": [
        4.120699882507324,
        -13.156000137329102,
        -2.946000099182129
      ],
      "min": [
        -25.2106990814209,
        -13.694999694824219,
        -4.02400016784668
      ],
      "type": "VEC3"
    },
    {
      "bufferView": 1,
      "byteOffset": 1769376,
      "componentType": 5126,
      "count": 44,
      "max": [
        1.0,
        1.0,
        1.0
      ],
      "min": [
        -1.0,
        -1.0,
        -1.0
      ],
      "type": "VEC3"
    },
    {
      "bufferView": 0,
      "byteOffset": 1327332,
      "componentType": 5125,
      "count": 72,
      "type": "SCALAR"
    },
    {
      "bufferView": 1,
      "byteOffset": 1769904,
      "componentType": 5126,
      "count": 4579,
      "max": [
        11.127900123596191,
        -20.0,
        12.295000076293945
      ],
      "min": [
        -31.66349983215332,
        -46.33599853515625,
        -27.63610076904297
      ],
      "type": "VEC3"
    },
    {
      "bufferView": 1,
      "byteOffset": 1824852,
      "componentType": 5126,
      "count": 4579,
      "max": [
        0.9999566078186035,
        1.0,
        0.9999857544898987
      ],
      "min": [
        -0.9999861121177673,
        -0.9998890161514282,
        -0.9998928904533386
      ],
      "type": "VEC3"
    },
    {
      "bufferView": 0,
      "byteOffset": 1327620,
      "componentType": 5125,
      "count": 18408,
      "type": "SCALAR"
    },
    {
      "bufferView": 1,
      "byteOffset": 1879800,
      "componentType": 5126,
      "count": 2335,
      "max": [
        6.242000102996826,
        -11.0,
        2.484999895095825
      ],
      "min": [
        -25.607999801635742,
        -33.097999572753906,
        -35.42399978637695
      ],
      "type": "VEC3"
    },
    {
      "bufferView": 1,
      "byteOffset": 1907820,
      "componentType": 5126,
      "count": 2335,
      "max": [
        1.0,
        1.0,
        1.0
      ],
      "min": [
        -1.0,
        -1.0,
        -1.0
      ],
      "type": "VEC3"
    },
    {
      "bufferView": 0,
      "byteOffset": 1401252,
      "componentType": 5125,
      "count": 9855,
      "type": "SCALAR"
    },
    {
      "bufferView": 1,
      "byteOffset": 1935840,
      "componentType": 5126,
      "count": 767,
      "max": [
        -7.363999843597412,
        -11.0,
        0.2879999876022339
      ],
      "min": [
        -13.611000061035156,
        -13.156000137329102,
        -46.632999420166016
      ],
      "type": "VEC3"
    },
    {
      "bufferView": 1,
      "byteOffset": 1945044,
      "componentType": 5126,
      "count": 767,
      "max": [
        1.0,
        1.0,
        1.0
      ],
      "min": [
        -1.0,
        -1.0,
        -1.0
      ],
      "type": "VEC3"
    },
    {
      "bufferView": 0,
      "byteOffset": 1440672,
      "componentType": 5125,
      "count": 2190,
      "type": "SCALAR"
    },
    {
      "bufferView": 1,
      "byteOffset": 1954248,
      "componentType": 5126,
      "count": 277,
      "max": [
        5.320499897003174,
        -11.0,
        -20.19099998474121
      ],
      "min": [
        -26.410200119018555,
        -21.984699249267578,
        -37.145999908447266
      ],
      "type": "VEC3"
    },
    {
      "bufferView": 1,
      "byteOffset": 1957572,
      "componentType": 5126,
      "count": 277,
      "max": [
        1.0,
        1.0,
        1.0
      ],
      "min": [
        -1.0,
        -1.0,
        -1.0
      ],
      "type": "VEC3"
    },
    {
      "bufferView": 0,
      "byteOffset": 1449432,
      "componentType": 5125,
      "count": 663,
      "type": "SCALAR"
    },
    {
      "bufferView": 1,
      "byteOffset": 1960896,
      "componentType": 5126,
      "count": 9843,
      "max": [
        4.48199987411499,
        -0.7149999737739563,
        40.926998138427734
      ],
      "min": [
        -25.773000717163086,
        -24.95599937438965,
        15.279000282287598
      ],
      "type": "VEC3"
    },
    {
      "bufferView": 1,
      "byteOffset": 2079012,
      "componentType": 5126,
      "count": 9843,
      "max": [
        1.0,
        1.0,
        1.0
      ],
      "min": [
        -1.0,
        -1.0,
        -1.0
      ],
      "type": "VEC3"
    },
    {
      "bufferView": 0,
      "byteOffset": 1452084,
      "componentType": 5125,
      "count": 37095,
      "type": "SCALAR"
    }
  ],
  "asset": {
    "extras": {
      "author": "moto man 135 (https://sketchfab.com/csharp122705)",
      "license": "CC-BY-4.0 (http://creativecommons.org/licenses/by/4.0/)",
      "source": "https://sketchfab.com/3d-models/jet-sprint-boat-5b76557ed6384c5595f7a7c4e18d625d",
      "title": "jet sprint boat"
    },
    "generator": "Sketchfab-11.59.2",
    "version": "2.0"
  },
  "bufferViews": [
    {
      "buffer": 0,
      "byteLength": 1600464,
      "name": "floatBufferViews",
      "target": 34963
    },
    {
      "buffer": 0,
      "byteLength": 2197128,
      "byteOffset": 1600464,
      "byteStride": 12,
      "name": "floatBufferViews",
      "target": 34962
    }
  ],
  "buffers": [
    {
      "byteLength": 3797592,
      "uri": "scene.bin"
    }
  ],
  "materials": [
    {
      "doubleSided": true,
      "name": "color_10066329",
      "pbrMetallicRoughness": {
        "baseColorFactor": [
          0.6,
          0.6,
          0.6,
          1.0
        ],
        "roughnessFactor": 0.08018380363472744
      }
    },
    {
      "doubleSided": true,
      "name": "color_10988977",
      "pbrMetallicRoughness": {
        "baseColorFactor": [
          0.654902,
          0.678431,
          0.694118,
          1.0
        ],
        "metallicFactor": 0.0
      }
    },
    {
      "doubleSided": true,
      "name": "color_11642795",
      "pbrMetallicRoughness": {
        "baseColorFactor": [
          0.694118,
          0.654902,
          0.670588,
          1.0
        ],
        "roughnessFactor": 0.0
      }
    },
    {
      "doubleSided": true,
      "name": "color_11643559",
      "pbrMetallicRoughness": {
        "baseColorFactor": [
          0.0,
          0.0,
          0.0,
          1.0
        ],
        "metallicFactor": 0.0,
        "roughnessFactor": 0.0
      }
    },
    {
      "doubleSided": true,
      "name": "color_11644327",
      "pbrMetallicRoughness": {
        "baseColorFactor": [
          0.694118,
          0.678431,
          0.654902,
          1.0
        ],
        "roughnessFactor": 0.0
      }
    },
    {
      "doubleSided": true,
      "name": "color_14541540",
      "pbrMetallicRoughness": {
        "baseColorFactor": [
          0.711685067614138,
          0.7325769364001187,
          0.7409556523337896,
          1.0
        ],
        "roughnessFactor": 0.16530622792137117
      }
    },
    {
      "doubleSided": true,
      "name": "color_15277357",
      "pbrMetallicRoughness": {
        "baseColorFactor": [
          1.0,
          0.0,
          0.0,
          1.0
        ],
        "metallicFactor": 0.0,
        "roughnessFactor": 0.043702764654737325
      }
    },
    {
      "doubleSided": true,
      "name": "color_16448250",
      "pbrMetallicRoughness": {
        "baseColorFactor": [
          0.980392,
          0.980392,
          0.980392,
          1.0
        ],
        "metallicFactor": 0.0
      }
    },
    {
      "doubleSided": true,
      "name": "color_16768282",
      "pbrMetallicRoughness": {
        "baseColorFactor": [
          0.49203814104980514,
          0.49203814104980514,
          0.49203814104980514,
          1.0
        ],
        "metallicFactor": 0.6583687503420098,
        "roughnessFactor": 0.19570709373802964
      }
    },
    {
      "doubleSided": true,
      "name": "color_2829873",
      "pbrMetallicRoughness": {
        "baseColorFactor": [
          0.0,
          0.0,
          0.0,
          1.0
        ],
        "metallicFactor": 0.0
      }
    },
    {
      "doubleSided": true,
      "name": "color_2961707",
      "pbrMetallicRoughness": {
        "baseColorFactor": [
          0.176471,
          0.192157,
          0.168627,
          1.0
        ],
        "roughnessFactor": 0.0862639767980592
      }
    },
    {
      "doubleSided": true,
      "name": "color_3091249",
      "pbrMetallicRoughness": {
        "roughnessFactor": 0.0984243231247226
      }
    },
    {
      "doubleSided": true,
      "name": "color_6383466",
      "pbrMetallicRoughness": {
        "roughnessFactor": 0.0
      }
    }
  ],
  "meshes": [
    {
      "name": "Object_0",
      "primitives": [
        {
          "attributes": {
            "NORMAL": 1,
            "POSITION": 0
          },
          "indices": 2,
          "material": 0,
          "mode": 4
        }
      ]
    },
    {
      "name": "Object_1",
      "primitives": [
        {
          "attributes": {
            "NORMAL": 4,
            "POSITION": 3
          },
          "indices": 5,
          "material": 1,
          "mode": 4
        }
      ]
    },
    {
      "name": "Object_2",
      "primitives": [
        {
          "attributes": {
            "NORMAL": 7,
            "POSITION": 6
          },
          "indices": 8,
          "material": 2,
          "mode": 4
        }
      ]
    },
    {
      "name": "Object_3",
      "primitives": [
        {
          "attributes": {
            "NORMAL": 10,
            "POSITION": 9
          },
          "indices": 11,
          "material": 3,
          "mode": 4
        }
      ]
    },
    {
      "name": "Object_4",
      "primitives": [
        {
          "attributes": {
            "NORMAL": 13,
            "POSITION": 12
          },
          "indices": 14,
          "material": 4,
          "mode": 4
        }
      ]
    },
    {
      "name": "Object_5",
      "primitives": [
        {
          "attributes": {
            "NORMAL": 16,
            "POSITION": 15
          },
          "indices": 17,
          "material": 5,
          "mode": 4
        }
      ]
    },
    {
      "name": "Object_6",
      "primitives": [
        {
          "attributes": {
            "NORMAL": 19,
            "POSITION": 18
          },
          "indices": 20,
          "material": 6,
          "mode": 4
        }
      ]
    },
    {
      "name": "Object_7",
      "primitives": [
        {
          "attributes": {
            "NORMAL": 22,
            "POSITION": 21
          },
          "indices": 23,
          "material": 7,
          "mode": 4
        }
      ]
    },
    {
      "name": "Object_8",
      "primitives": [
        {
          "attributes": {
            "NORMAL": 25,
            "POSITION": 24
          },
          "indices": 26,
          "material": 8,
          "mode": 4
        }
      ]
    },
    {
      "name": "Object_9",
      "primitives": [
        {
          "attributes": {
            "NORMAL": 28,
            "POSITION": 27
          },
          "indices": 29,
          "material": 9,
          "mode": 4
        }
      ]
    },
    {
      "name": "Object_10",
      "primitives": [
        {
          "attributes": {
            "NORMAL": 31,
            "POSITION": 30
          },
          "indices": 32,
          "material": 10,
          "mode": 4
        }
      ]
    },
    {
      "name": "Object_11",
      "primitives": [
        {
          "attributes": {
            "NORMAL": 34,
            "POSITION": 33
          },
          "indices": 35,
          "material": 11,
          "mode": 4
        }
      ]
    },
    {
      "name": "Object_12",
      "primitives": [
        {
          "attributes": {
            "NORMAL": 37,
            "POSITION": 36
          },
          "indices": 38,
          "material": 12,
          "mode": 4
        }
      ]
    }
  ],
  "nodes": [
    {
      "children": [
        1
      ],
      "matrix": [
        -0.9999871253967285,
        2.3105016225598556e-05,
        0.005079144611954689,
        0.0,
        -4.336808689942018e-19,
        -0.9999896287918091,
        0.004548950120806472,
        0.0,
        0.005079197231680155,
        0.004548891447484271,
        0.9999767541885376,
        0.0,
        -20.951738357543945,
        -32.62231826782227,
        32.824504852294915,
        1.0
      ],
      "name": "Sketchfab_model"
    },
    {
      "children": [
        2,
        3,
        4,
        5,
        6,
        7,
        8,
        9,
        10,
        11,
        12,
        13,
        14
      ],
      "name": "tinker.obj.cleaner.materialmerger.gles"
    },
    {
      "mesh": 0,
      "name": "Object_2"
    },
    {
      "mesh": 1,
      "name": "Object_3"
    },
    {
      "mesh": 2,
      "name": "Object_4"
    },
    {
      "mesh": 3,
      "name": "Object_5"
    },
    {
      "mesh": 4,
      "name": "Object_6"
    },
    {
      "mesh": 5,
      "name": "Object_7"
    },
    {
      "mesh": 6,
      "name": "Object_8"
    },
    {
      "mesh": 7,
      "name": "Object_9"
    },
    {
      "mesh": 8,
      "name": "Object_10"
    },
    {
      "mesh": 9,
      "name": "Object_11"
    },
    {
      "mesh": 10,
      "name": "Object_12"
    },
    {
      "mesh": 11,
      "name": "Object_13"
    },
    {
      "mesh": 12,
      "name": "Object_14"
    }
  ],
  "scene": 0,
  "scenes": [
    {
      "name": "Sketchfab_Scene",
      "nodes": [
        0
      ]
    }
  ]
}
